<?xml version="1.0" encoding="UTF-8"?><svg xmlns="http://www.w3.org/2000/svg" viewBox="0 0 25.54 30.83"><defs><style>.d{fill:#fff;}</style></defs><g id="a"/><g id="b"><g id="c"><g><path class="d" d="M21.84,16.72h-2.52V8.32c0-3.2-2.6-5.8-5.8-5.8h-1.51c-3.2,0-5.8,2.6-5.8,5.8v8.4H3.7V8.32C3.7,3.73,7.43,0,12.01,0h1.51c4.59,0,8.32,3.73,8.32,8.32v8.4Z"/><path class="d" d="M23.02,12.01H2.52c-1.39,0-2.52,1.13-2.52,2.52v13.78c0,1.39,1.13,2.52,2.52,2.52H23.02c1.39,0,2.52-1.13,2.52-2.52V14.53c0-1.39-1.13-2.52-2.52-2.52Zm-9.02,9.4l.27,5.56h-3l.27-5.56c-.72-.42-1.2-1.2-1.2-2.09,0-1.35,1.09-2.44,2.44-2.44s2.44,1.09,2.44,2.44c0,.89-.49,1.67-1.2,2.09Z"/></g></g></g></svg>