<?xml version="1.0" encoding="UTF-8"?><svg xmlns="http://www.w3.org/2000/svg" viewBox="0 0 283.02 45.49"><defs><style>.d{fill:#fff;}</style></defs><g id="a"/><g id="b"><g id="c"><g><path class="d" d="M10.99,28.01c.38,2.94,2.18,3.79,5.26,3.79s5.12-.66,5.12-2.7c0-1.42-.62-2.47-7.16-4.27C6.16,22.56,.62,20.23,.62,12.61S6.54,0,15.97,0c4.31,0,14.07,1.19,15.35,12.23h-10.99c-.28-2.51-2.04-3.03-4.5-3.03-1.47,0-4.12,.24-4.12,2.27,0,1.42,.33,1.71,8.15,4.17,6.73,2.09,12.6,3.93,12.6,11.94,0,5.59-3.74,13.36-16.3,13.36-5.31,0-14.79-1.56-16.16-12.94H10.99Z"/><path class="d" d="M45.5,45.49h-9.57V11.56h8.53l.19,3.79c2.46-4.83,7.34-4.83,8.67-4.83,9.33,0,12.56,7.72,12.56,15.26s-3.03,15.16-11.99,15.16c-1.42,0-6.07,0-8.39-4.12v8.67Zm9.1-14.26c.99-1.37,1.33-3.6,1.33-5.31,0-4.88-2.23-7.53-5.26-7.53-3.84,0-5.07,3.98-5.07,6.97,0,.99,.05,7.63,5.31,7.63,2.23,0,3.17-1.04,3.7-1.75Z"/><path class="d" d="M142.79,14.31c-.9-4.64-4.22-5.12-7.3-5.12-4.83,0-8.06,2.84-8.06,11.94,0,10.66,6.63,10.66,8.81,10.66s5.54-.14,7.11-5.26h-6.26v-7.63h16.59v20.99h-7.15l-.43-3.6c-1.33,1.47-4.12,4.64-11.47,4.64-12.65,0-18.29-9.57-18.29-20.14,0-14.12,9.33-20.8,19.33-20.8,14.26,0,16.97,11.56,17.58,14.31h-10.47Z"/><path class="d" d="M178.15,39.9c-.62-1.04-.76-1.94-.76-3.13-1.61,1.85-4.31,4.17-10.43,4.17-4.88,0-10-1.75-10-9s5.54-8.01,15.97-9.48c2.23-.33,4.41-.62,4.41-2.51,0-2.51-2.84-2.51-4.03-2.51-5.69,0-5.69,1.33-5.64,2.8h-9.33c.33-2.99,.99-9.71,14.93-9.71,6.63,0,13.69,1.8,13.69,9.48v16.59c0,.99,.28,2.04,1.28,2.65v.66h-10.09Zm-.76-12.56c-1.42,.66-1.75,.71-4.93,1.28-3.51,.66-5.5,1.04-5.5,3.17,0,1.99,2.65,2.04,3.7,2.04,3.13,0,6.73-1.47,6.73-5.21v-1.28Z"/><path class="d" d="M206.82,19.38c-.09-.9-.14-2.37-3.46-2.37-1.04,0-3.27,.19-3.27,1.94,0,1.23,1.14,1.71,3.27,2.23,9.1,2.23,14.12,3.51,14.12,9.9s-5.92,9.86-14.07,9.86c-.99,0-7.49,0-11.14-3.6-2.18-2.18-2.46-4.74-2.65-6.4h10c.05,1.47,.19,3.51,4.22,3.51,1.28,0,3.65-.19,3.65-2.09,0-1.56-1.37-1.94-3.32-2.42-9.05-2.32-13.6-3.51-13.6-9.9,0-8.63,8.86-9.53,12.89-9.53,3.51,0,7.2,.9,9.29,2.23,3.32,2.09,3.7,4.93,3.89,6.63h-9.81Z"/><path class="d" d="M229.76,1.04V15.02c1.33-1.66,3.6-4.5,9.1-4.5,1.23,0,10.43,0,10.43,11.09v18.29h-9.57v-15.83c0-5.12-3.03-5.31-4.69-5.31-2.27,0-5.26,1.19-5.26,5.45v15.69h-9.57V1.04h9.57Z"/><path class="d" d="M272.93,39.9c-.62-1.04-.76-1.94-.76-3.13-1.61,1.85-4.31,4.17-10.43,4.17-4.88,0-10-1.75-10-9s5.54-8.01,15.97-9.48c2.23-.33,4.41-.62,4.41-2.51,0-2.51-2.84-2.51-4.03-2.51-5.69,0-5.69,1.33-5.64,2.8h-9.33c.33-2.99,.99-9.71,14.93-9.71,6.63,0,13.69,1.8,13.69,9.48v16.59c0,.99,.28,2.04,1.28,2.65v.66h-10.09Zm-.76-12.56c-1.42,.66-1.75,.71-4.93,1.28-3.51,.66-5.5,1.04-5.5,3.17,0,1.99,2.65,2.04,3.7,2.04,3.13,0,6.73-1.47,6.73-5.21v-1.28Z"/><g><path class="d" d="M84.53,42.87c1.52,.35,3.1,.54,4.72,.54,4.25,0,8.2-1.28,11.5-3.47-6.65-2.46-13.21-5.19-19.65-8.18,1.06,3.73,2.21,7.43,3.43,11.1Z"/><path class="d" d="M84.2,2.44c-5.57,1.39-10.25,5.03-13.03,9.89,7.03-.66,14.09-1.05,21.16-1.15-2.64-2.98-5.35-5.89-8.13-8.74Z"/><path class="d" d="M70.38,13.87c-1.24,2.66-1.93,5.62-1.93,8.75,0,2.64,.5,5.17,1.4,7.49,3.84-5.86,7.91-11.58,12.2-17.12-3.9,.21-7.79,.5-11.67,.88Z"/><path class="d" d="M99.62,28.52c3.52-1.93,7-3.95,10.42-6.04-.04-6.04-2.65-11.46-6.79-15.24-.86,6.58-1.95,13.14-3.3,19.64-.11,.54-.22,1.09-.34,1.63Z"/><path class="d" d="M100.15,18.1c.69-3.97,1.28-7.96,1.79-11.95-3.51-2.71-7.91-4.32-12.68-4.32-1.15,0-2.27,.1-3.36,.27,4.96,5.14,9.72,10.48,14.26,16Z"/><path class="d" d="M77.05,22.15c-2.24,3.14-4.41,6.33-6.51,9.56,2.46,5.05,6.9,8.95,12.31,10.7-2.19-6.67-4.13-13.43-5.79-20.26Z"/><path class="d" d="M102.16,38.92c4.41-3.5,7.37-8.75,7.82-14.7-6.14,3.71-12.42,7.18-18.84,10.39,3.64,1.52,7.32,2.96,11.02,4.31Z"/></g></g></g></g></svg>