<?xml version="1.0" encoding="UTF-8"?><svg xmlns="http://www.w3.org/2000/svg" viewBox="0 0 25.95 21.35"><defs><style>.d{fill:#fff;}.e{fill:#3678c6;}</style></defs><g id="a"/><g id="b"><g id="c"><g><path class="d" d="M5.12,19.66c.14,0,.23-.01,.31-.02,.08,0,.17,0,.34-.02,.21-.01,.32-.01,.41,0,.07,0,.15,0,.29,0,.17-.01,.25-.02,.33-.03,.09-.01,.19-.02,.38-.03,.16-.01,.24-.02,.32-.03,.1-.01,.19-.02,.38-.04,.16-.01,.25-.02,.33-.03,.09,0,.18-.02,.36-.03h.01c.16-.01,.24-.02,.32-.03,.1-.01,.19-.02,.38-.04,.16-.01,.27-.04,.34-.09,.09-.07,.18-.17,.24-.3,.07-.15,.11-.27,.1-.37l-.04-.91c0-.12-.06-.28-.15-.48-.08-.17-.2-.32-.32-.44-.12-.11-.26-.19-.41-.24-.06-.02-.1-.03-.13-.04-.01,0-.02,0-.04-.02-.33-.1-.64-.29-.92-.58-.27-.28-.47-.59-.59-.9-.14-.38-.12-.76-.08-1.08,0-.05,0-.1,0-.17,.01-.12-.01-.29-.08-.5-.05-.14-.13-.3-.27-.47-.14-.18-.25-.29-.35-.33-.23-.11-.33-.17-.44-.24-.09-.05-.19-.11-.38-.2-.06-.03-.16-.06-.36-.04-.14,.01-.26,.05-.35,.12-.12,.09-.21,.18-.26,.28-.06,.13-.08,.18-.1,.26-.03,.1-.06,.22-.15,.42,0,.02-.02,.04-.03,.06-.08,.18-.14,.28-.19,.37-.04,.06-.07,.13-.13,.25-.07,.14-.1,.22-.12,.29-.04,.1-.08,.2-.16,.39-.09,.2-.16,.31-.21,.4-.04,.07-.08,.13-.14,.26-.07,.15-.1,.23-.13,.31-.04,.09-.08,.19-.16,.37-.08,.18-.13,.26-.17,.35-.03,.06-.06,.13-.11,.23,.02,.03,.04,.05,.06,.08,.06,.09,.11,.21,.14,.37,.01,.06,.03,.11,.04,.14,.11,.18,.16,.28,.2,.37,.03,.07,.06,.12,.13,.24,.07,.11,.1,.15,.15,.2,.06,.07,.14,.16,.26,.34,.11,.17,.16,.27,.2,.35,.03,.07,.06,.13,.14,.24,.1,.16,.15,.24,.19,.33,.04,.07,.07,.13,.16,.26,0,.01,.06,.05,.09,.06,.17,.11,.28,.23,.35,.35Z"/><path class="d" d="M22.51,8.4l.57-.4c.24-.17,.3-.51,.14-.77s-.49-.32-.72-.15l-.57,.4c-.13,.09-.19,.13-.26,.17-.08,.05-.17,.1-.33,.21-.17,.12-.26,.21-.33,.28-.06,.06-.1,.1-.21,.17-.13,.09-.2,.13-.26,.18-.08,.05-.16,.1-.32,.21-.16,.12-.24,.19-.32,.25-.06,.05-.11,.1-.24,.18-.14,.1-.2,.14-.27,.19-.08,.05-.15,.1-.3,.21-.11,.08-.17,.11-.24,.14-.08,.04-.19,.1-.36,.22s-.25,.2-.33,.26c-.06,.05-.1,.1-.22,.18-.12,.09-.19,.13-.26,.17-.08,.05-.17,.1-.33,.21s-.23,.18-.31,.24c-.06,.05-.12,.1-.24,.19-.14,.1-.21,.14-.28,.19-.08,.05-.15,.1-.3,.21-.13,.09-.2,.14-.27,.18-.08,.05-.16,.1-.31,.21-.17,.12-.25,.19-.32,.25-.06,.05-.11,.1-.23,.18-.13,.1-.2,.14-.27,.19-.08,.05-.15,.1-.3,.21-.12,.08-.17,.11-.24,.15-.09,.05-.18,.1-.35,.22-.15,.11-.22,.16-.3,.22-.07,.05-.13,.1-.27,.2-.13,.09-.19,.13-.26,.17-.08,.05-.16,.1-.32,.21-.17,.12-.25,.19-.32,.25-.06,.05-.11,.1-.23,.18-.15,.11-.23,.17-.3,.23-.06,.05-.12,.1-.25,.19-.11,.08-.17,.11-.24,.14-.08,.04-.19,.1-.36,.22-.24,.17-.3,.51-.14,.77s.48,.32,.72,.15c.11-.08,.17-.11,.24-.14,.08-.04,.19-.1,.36-.22,.15-.11,.23-.17,.3-.23,.06-.05,.12-.1,.25-.19,.17-.12,.25-.19,.32-.25,.06-.05,.11-.1,.23-.18,.13-.09,.19-.13,.26-.17,.08-.05,.16-.1,.32-.21s.22-.16,.3-.22c.07-.05,.13-.1,.27-.2,.12-.08,.17-.11,.24-.15,.09-.05,.18-.1,.35-.22,.13-.1,.2-.14,.27-.19,.08-.05,.15-.1,.3-.21,.17-.12,.25-.19,.32-.25,.06-.05,.11-.1,.23-.18,.13-.09,.2-.14,.27-.18,.08-.05,.16-.1,.31-.21,.14-.1,.21-.14,.28-.19,.08-.05,.15-.1,.3-.21,.16-.11,.23-.18,.31-.24,.06-.05,.12-.1,.24-.19s.19-.13,.26-.17c.08-.05,.17-.1,.33-.21,.17-.12,.25-.2,.33-.26,.06-.05,.1-.1,.22-.18s.17-.11,.24-.14c.08-.04,.19-.1,.36-.22,.14-.1,.2-.14,.27-.19,.08-.05,.15-.1,.3-.21,.16-.12,.24-.19,.32-.25,.06-.05,.11-.1,.24-.18,.13-.09,.2-.13,.26-.18,.08-.05,.16-.1,.32-.21,.17-.12,.26-.21,.33-.28,.06-.06,.1-.1,.21-.17,.13-.09,.19-.13,.26-.17,.08-.05,.17-.1,.33-.21Z"/><path class="d" d="M19.74,4.72c.08-.05,.15-.1,.31-.21s.22-.16,.29-.21c.07-.05,.14-.1,.27-.2,.24-.17,.3-.51,.14-.77s-.49-.32-.72-.15c-.15,.1-.22,.16-.29,.21-.07,.05-.14,.1-.27,.2s-.2,.14-.27,.19c-.08,.05-.15,.1-.31,.21l-.57,.4c-.16,.11-.24,.18-.31,.24-.06,.05-.12,.1-.24,.19-.16,.12-.25,.19-.32,.25-.06,.05-.11,.1-.23,.18l-.57,.4c-.14,.1-.21,.15-.28,.19-.07,.05-.15,.1-.3,.21-.12,.09-.18,.12-.25,.16-.08,.05-.18,.1-.34,.22s-.24,.18-.31,.25c-.06,.05-.12,.1-.24,.19-.15,.11-.22,.16-.3,.22-.07,.05-.13,.1-.27,.2-.11,.08-.16,.1-.23,.14-.09,.04-.19,.1-.37,.22-.16,.12-.25,.19-.32,.25-.06,.05-.11,.1-.23,.18-.14,.1-.21,.15-.28,.2-.07,.05-.15,.1-.29,.2s-.22,.16-.29,.21c-.07,.05-.13,.1-.27,.2-.12,.08-.17,.11-.25,.15-.08,.05-.18,.1-.35,.22s-.25,.2-.32,.26c-.06,.05-.11,.1-.22,.18s-.17,.11-.24,.14c-.08,.04-.19,.1-.36,.22-.16,.11-.23,.17-.31,.23-.06,.05-.12,.1-.25,.19s-.2,.14-.27,.18c-.08,.05-.16,.1-.31,.21-.14,.1-.21,.15-.28,.2-.07,.05-.15,.1-.29,.2-.24,.17-.3,.51-.14,.77s.48,.32,.72,.15c.14-.1,.21-.15,.28-.2,.07-.05,.15-.1,.29-.2,.13-.09,.2-.14,.27-.18,.08-.05,.16-.1,.31-.21s.23-.17,.31-.23c.06-.05,.12-.1,.25-.19,.11-.08,.17-.11,.24-.14,.08-.04,.19-.1,.36-.22s.25-.2,.32-.26c.06-.05,.11-.1,.22-.18s.17-.11,.25-.15c.08-.05,.18-.1,.34-.22,.15-.11,.22-.16,.29-.21,.07-.05,.13-.1,.27-.2s.21-.15,.28-.2c.07-.05,.15-.1,.29-.2,.16-.12,.25-.19,.32-.25,.06-.05,.11-.1,.23-.18,.11-.08,.16-.1,.23-.14,.09-.04,.19-.1,.37-.22,.15-.11,.22-.16,.3-.22,.07-.05,.13-.1,.27-.2,.16-.11,.24-.18,.31-.25,.06-.05,.12-.1,.24-.19s.18-.12,.25-.16c.08-.05,.18-.1,.34-.22,.14-.1,.21-.15,.28-.19,.07-.05,.15-.1,.3-.21l.57-.4c.16-.12,.25-.19,.32-.25,.06-.05,.11-.1,.23-.18,.16-.11,.24-.18,.31-.24,.06-.05,.12-.1,.24-.19l.57-.4c.13-.1,.2-.14,.27-.19Z"/><path class="e" d="M25.83,9.43c.1-.22,.13-.46,.12-.7-.01-.23-.07-.47-.2-.68-.2-.32-.2-.33-.41-.65-.11-.17-.26-.34-.39-.55-.12-.18-.2-.4-.32-.6s-.26-.38-.37-.56c-.13-.21-.26-.4-.37-.57-.17-.27-.19-.25-.35-.52s-.17-.27-.34-.53-.17-.26-.34-.53c-.11-.17-.24-.35-.38-.56-.12-.18-.21-.4-.33-.59s-.25-.39-.36-.57c-.13-.21-.28-.39-.38-.56-.2-.32-.18-.34-.39-.66-.13-.21-.33-.33-.53-.43-.2-.11-.42-.17-.65-.16-.22,.02-.44,.09-.63,.23-.29,.21-.3,.2-.59,.41-.3,.21-.28,.22-.58,.43s-.29,.22-.58,.43-.31,.18-.6,.39-.28,.23-.58,.43-.29,.22-.58,.42-.32,.16-.62,.37-.3,.2-.59,.41-.28,.22-.58,.43-.29,.21-.59,.41-.29,.21-.59,.42-.29,.21-.58,.42-.27,.24-.56,.45-.29,.21-.59,.41-.3,.2-.59,.4-.32,.17-.61,.38-.29,.21-.59,.41-.29,.21-.58,.42-.27,.24-.56,.45-.31,.18-.6,.39-.3,.2-.59,.4-.29,.21-.58,.42-.28,.22-.58,.43-.29,.22-.58,.42-.32,.17-.61,.38c-.16,.12-.29,.28-.39,.45-.23,.2-.42,.44-.54,.7h0c-.1,.23-.14,.35-.18,.46-.02,.08-.04,.13-.09,.26-.06,.14-.09,.19-.14,.27-.05,.08-.11,.18-.19,.37-.09,.19-.13,.29-.16,.39-.03,.07-.06,.15-.12,.29-.06,.13-.09,.19-.14,.26-.05,.09-.12,.19-.21,.4-.08,.18-.12,.28-.16,.37-.03,.08-.06,.16-.13,.31-.07,.16-.11,.24-.15,.32-.04,.09-.09,.17-.17,.35-.09,.2-.13,.32-.17,.42-.03,.08-.05,.14-.11,.27-.07,.16-.11,.23-.15,.31-.04,.09-.09,.18-.17,.35-.06,.13-.09,.18-.13,.24-.05,.09-.12,.2-.22,.41-.09,.18-.12,.28-.16,.37-.03,.08-.06,.16-.13,.31-.08,.18-.12,.27-.16,.36-.03,.08-.07,.16-.14,.32-.16,.35-.23,.69-.2,.99,0,.07,.02,.14,.04,.21,.01,.16,.07,.3,.15,.42h0c.09,.15,.2,.25,.32,.31,.05,.04,.1,.08,.16,.11,.25,.14,.56,.2,.94,.17,.19-.01,.29-.02,.38-.04,.08,0,.16-.02,.32-.03,.16-.01,.24-.01,.32-.01,.1,0,.19,0,.39-.02,.16-.01,.24-.01,.32-.01,.1,0,.2,0,.39-.02,.18-.01,.27-.02,.36-.03,.09,0,.17-.01,.35-.03,.2-.01,.29-.03,.39-.04,.08-.01,.16-.02,.31-.03,.17-.01,.25-.02,.33-.02,.09,0,.19,0,.37-.02,.15-.01,.22,0,.29,0,.1,0,.21,0,.41,0,.19-.01,.28-.02,.38-.03,.08,0,.16-.02,.33-.03,.19-.01,.29-.02,.38-.04,.08,0,.16-.02,.32-.03,.19-.01,.28-.02,.38-.03,.08,0,.16-.02,.33-.03,.19-.01,.29-.03,.39-.04,.08,0,.16-.02,.32-.03,.35-.02,.63-.11,.88-.26,.16-.02,.33-.07,.47-.17,.29-.21,.29-.21,.58-.42s.28-.23,.57-.44,.32-.16,.62-.37,.28-.23,.57-.44,.28-.23,.57-.44,.28-.22,.58-.43,.31-.18,.61-.38,.29-.21,.58-.42,.28-.22,.58-.43,.29-.21,.58-.42,.32-.17,.61-.38,.3-.2,.59-.4,.3-.2,.59-.41,.27-.24,.57-.44,.29-.21,.59-.42,.3-.2,.59-.41,.3-.19,.6-.4,.29-.2,.59-.41,.28-.23,.57-.44,.28-.24,.57-.44,.32-.17,.61-.37,.27-.24,.57-.45,.29-.21,.58-.42,.29-.21,.58-.42,.31-.18,.6-.39c.2-.14,.35-.33,.45-.54ZM7.88,19.48c-.19,.01-.29,.02-.38,.04-.08,0-.16,.02-.32,.03-.19,.01-.28,.02-.38,.03-.08,0-.16,.02-.33,.03-.15,.01-.22,0-.29,0-.1,0-.21,0-.41,0-.17,.01-.25,.02-.34,.02-.08,0-.17,0-.31,.02-.06-.12-.17-.24-.35-.35-.03-.02-.08-.05-.09-.06-.08-.13-.12-.2-.16-.26-.05-.08-.09-.17-.19-.33-.07-.12-.1-.17-.14-.24-.04-.09-.09-.18-.2-.35-.12-.18-.2-.27-.26-.34-.05-.05-.08-.09-.15-.2-.07-.11-.1-.17-.13-.24-.04-.09-.09-.19-.2-.37-.02-.03-.03-.08-.04-.14-.03-.15-.08-.27-.14-.37-.02-.03-.04-.06-.06-.08,.05-.1,.08-.17,.11-.23,.04-.09,.09-.17,.17-.35,.09-.18,.12-.28,.16-.37,.03-.08,.06-.16,.13-.31,.06-.13,.09-.19,.14-.26,.05-.09,.12-.19,.21-.4,.09-.19,.13-.29,.16-.39,.03-.07,.06-.15,.12-.29,.06-.13,.1-.19,.13-.25,.05-.09,.11-.19,.19-.37,0-.02,.02-.04,.03-.06,.09-.2,.12-.32,.15-.42,.02-.08,.04-.13,.1-.26,.04-.1,.13-.19,.26-.28,.09-.07,.22-.11,.35-.12,.2-.02,.31,.01,.36,.04,.19,.1,.29,.15,.38,.2,.11,.06,.22,.12,.44,.24,.1,.05,.21,.16,.35,.33,.13,.17,.22,.33,.27,.47,.07,.21,.09,.38,.08,.5,0,.07,0,.12,0,.17-.04,.32-.05,.7,.08,1.08,.11,.32,.31,.62,.59,.9,.28,.28,.59,.48,.92,.58,.02,0,.03,.01,.04,.02,.03,.01,.06,.02,.13,.04,.15,.05,.29,.13,.41,.24,.13,.12,.24,.27,.32,.44,.1,.2,.15,.36,.15,.48l.04,.91c0,.1-.03,.22-.1,.37-.06,.13-.15,.23-.24,.3-.07,.05-.18,.08-.34,.09-.19,.01-.29,.03-.38,.04-.08,0-.16,.02-.32,.03h-.01c-.18,.01-.27,.02-.36,.03-.08,0-.16,.02-.33,.03Zm5.76-6.13c.07-.06,.15-.11,.3-.22,.17-.12,.27-.17,.35-.22,.07-.04,.13-.07,.24-.15,.15-.11,.23-.16,.3-.21,.07-.05,.14-.09,.27-.19,.12-.08,.17-.13,.23-.18,.07-.06,.15-.14,.32-.25,.15-.11,.23-.16,.31-.21,.07-.04,.14-.09,.27-.18,.15-.1,.22-.16,.3-.21,.07-.05,.14-.09,.28-.19,.13-.09,.19-.14,.24-.19,.08-.06,.15-.13,.31-.24s.24-.16,.33-.21c.07-.04,.13-.08,.26-.17,.11-.08,.16-.12,.22-.18,.07-.07,.16-.14,.33-.26s.28-.18,.36-.22c.07-.04,.12-.06,.24-.14,.15-.11,.23-.16,.3-.21,.07-.05,.14-.09,.27-.19,.12-.09,.17-.13,.24-.18,.07-.06,.15-.13,.32-.25s.24-.16,.32-.21c.07-.04,.13-.08,.26-.18,.11-.08,.15-.12,.21-.17,.07-.07,.16-.15,.33-.28,.16-.11,.24-.16,.33-.21,.07-.04,.13-.08,.26-.17l.57-.4c.24-.17,.56-.1,.72,.15s.1,.6-.14,.77l-.57,.4c-.16,.11-.24,.16-.33,.21-.07,.04-.13,.08-.26,.17-.11,.08-.15,.12-.21,.17-.07,.07-.16,.15-.33,.28-.16,.11-.24,.16-.32,.21-.07,.04-.13,.08-.26,.18-.12,.09-.17,.13-.24,.18-.07,.06-.15,.13-.32,.25-.15,.11-.23,.16-.3,.21-.07,.05-.14,.09-.27,.19-.17,.12-.28,.18-.36,.22-.07,.04-.12,.06-.24,.14s-.16,.12-.22,.18c-.07,.07-.16,.14-.33,.26-.16,.11-.24,.16-.33,.21-.07,.04-.13,.08-.26,.17s-.19,.14-.24,.19c-.08,.06-.15,.13-.31,.24-.15,.1-.22,.16-.3,.21-.07,.05-.14,.09-.28,.19-.15,.11-.23,.16-.31,.21-.07,.04-.14,.09-.27,.18-.12,.08-.17,.13-.23,.18-.07,.06-.15,.14-.32,.25-.15,.11-.23,.16-.3,.21-.07,.05-.14,.09-.27,.19-.17,.12-.27,.17-.35,.22-.07,.04-.13,.07-.24,.15-.13,.1-.2,.15-.27,.2-.07,.06-.15,.11-.3,.22s-.24,.16-.32,.21c-.07,.04-.13,.08-.26,.17-.12,.08-.17,.13-.23,.18-.07,.06-.15,.14-.32,.25-.13,.09-.19,.14-.25,.19-.07,.06-.15,.12-.3,.23-.17,.12-.28,.18-.36,.22-.07,.04-.12,.06-.24,.14-.24,.17-.56,.1-.72-.15s-.1-.6,.14-.77c.17-.12,.28-.18,.36-.22,.07-.04,.12-.06,.24-.14,.13-.09,.19-.14,.25-.19,.07-.06,.15-.12,.3-.23,.12-.08,.17-.13,.23-.18,.07-.06,.15-.14,.32-.25s.24-.16,.32-.21c.07-.04,.13-.08,.26-.17,.13-.1,.2-.15,.27-.2ZM18.88,3.98c.15-.11,.23-.16,.31-.21,.07-.05,.14-.09,.27-.19s.21-.15,.27-.2c.07-.05,.15-.11,.29-.21,.24-.17,.56-.1,.72,.15s.1,.6-.14,.77c-.14,.1-.21,.15-.27,.2-.07,.05-.15,.11-.29,.21s-.23,.16-.31,.21c-.07,.05-.14,.09-.27,.19l-.57,.4c-.12,.09-.18,.14-.24,.19-.07,.06-.15,.13-.31,.24-.12,.09-.17,.13-.23,.18-.07,.06-.15,.13-.32,.25l-.57,.4c-.15,.1-.22,.15-.3,.21-.07,.05-.14,.09-.28,.19-.16,.12-.26,.17-.34,.22-.07,.04-.13,.07-.25,.16s-.18,.14-.24,.19c-.07,.06-.15,.13-.31,.25-.14,.1-.2,.15-.27,.2-.07,.06-.15,.11-.3,.22-.17,.12-.28,.18-.37,.22-.07,.04-.12,.06-.23,.14-.12,.09-.17,.13-.23,.18-.07,.06-.15,.13-.32,.25-.14,.1-.22,.15-.29,.2-.07,.05-.14,.1-.28,.2s-.2,.15-.27,.2c-.07,.05-.15,.11-.29,.21-.17,.12-.26,.17-.34,.22-.07,.04-.13,.07-.25,.15s-.16,.12-.22,.18c-.07,.07-.16,.14-.32,.26s-.27,.17-.36,.22c-.07,.04-.12,.06-.24,.14-.13,.09-.19,.14-.25,.19-.07,.06-.15,.12-.31,.23s-.23,.16-.31,.21c-.07,.04-.14,.09-.27,.18-.15,.1-.22,.15-.29,.2-.07,.05-.14,.1-.28,.2-.24,.17-.56,.1-.72-.15s-.1-.6,.14-.77c.15-.1,.22-.15,.29-.2,.07-.05,.14-.1,.28-.2,.15-.11,.23-.16,.31-.21,.07-.04,.14-.09,.27-.18s.19-.14,.25-.19c.07-.06,.15-.12,.31-.23,.17-.12,.27-.17,.36-.22,.07-.04,.12-.06,.24-.14s.16-.12,.22-.18c.07-.07,.15-.14,.32-.26s.26-.17,.35-.22c.07-.04,.13-.07,.25-.15,.14-.1,.2-.15,.27-.2,.07-.05,.15-.11,.29-.21s.22-.15,.29-.2c.07-.05,.14-.1,.28-.2,.12-.09,.17-.13,.23-.18,.07-.06,.15-.13,.32-.25,.17-.12,.28-.18,.37-.22,.07-.04,.12-.06,.23-.14,.14-.1,.2-.15,.27-.2,.07-.06,.15-.11,.3-.22,.12-.09,.18-.14,.24-.19,.07-.06,.15-.13,.31-.25s.26-.17,.34-.22c.07-.04,.13-.07,.25-.16,.15-.1,.22-.15,.3-.21,.07-.05,.14-.09,.28-.19l.57-.4c.12-.09,.17-.13,.23-.18,.07-.06,.15-.13,.32-.25,.12-.09,.18-.14,.24-.19,.07-.06,.15-.13,.31-.24l.57-.4Z"/></g></g></g></svg>